<svg viewBox="0 0 820 176" xmlns="http://www.w3.org/2000/svg" xml:space="preserve" style="fill-rule:evenodd;clip-rule:evenodd;stroke-linejoin:round;stroke-miterlimit:2"><circle cx="15.5" cy="16.5" r="12.5" style="fill:#f9f9ea" transform="translate(-21.063 -28.09) scale(7.02217)"/><path style="fill:#ffc4c4" d="M2260.18 211.9h8.244v271.795h-8.244z" transform="rotate(45 1440.02 -2430.165) scale(1 .88118)"/><path d="M18 23.642c0 .68-.243 1.242-.728 1.688-.485.446-1.076.67-1.772.67s-1.287-.223-1.772-.67c-.485-.447-.728-1.009-.728-1.688V7h1v16.642c0 .524.115.883.3 1.058.185.175.651.3 1.2.3.549 0 1.007-.117 1.2-.3.193-.183.3-.534.3-1.058V7h1v16.642Z" style="fill:#393f43" transform="translate(-21.063 -28.09) scale(7.02217)"/><g><path d="M2426.28 371.12c-2.76 0-5.22-.608-7.37-1.825a13.327 13.327 0 0 1-5.07-5.025c-1.24-2.133-1.85-4.55-1.85-7.25v-21.55h6.79v21.75c0 1.567.33 2.917.98 4.05a6.713 6.713 0 0 0 2.7 2.625c1.15.617 2.43.925 3.82.925 1.44 0 2.71-.308 3.81-.925a6.91 6.91 0 0 0 2.62-2.625c.65-1.133.97-2.467.97-4v-21.8h6.85v21.6c0 2.7-.61 5.108-1.85 7.225a13.458 13.458 0 0 1-5.02 5c-2.12 1.217-4.57 1.825-7.38 1.825ZM2462.78 370.62v-13.85c0-1.433-.44-2.6-1.35-3.5-.9-.9-2.06-1.35-3.5-1.35-.93 0-1.76.2-2.5.6-.73.4-1.3.967-1.72 1.7-.42.733-.62 1.583-.62 2.55l-2.56-1.3c0-1.9.41-3.558 1.23-4.975a8.716 8.716 0 0 1 3.4-3.325c1.45-.8 3.09-1.2 4.93-1.2 1.76 0 3.34.442 4.75 1.325 1.4.883 2.5 2.033 3.3 3.45a9.259 9.259 0 0 1 1.2 4.575v15.3h-6.56Zm-16.25 0v-24.15h6.56v24.15h-6.56ZM2490.89 370.62v-13.85c0-1.433-.46-2.6-1.36-3.5-.89-.9-2.06-1.35-3.5-1.35-.93 0-1.76.2-2.5.6-.73.4-1.3.967-1.72 1.7-.42.733-.63 1.583-.63 2.55l-2.54-1.3c0-1.9.4-3.558 1.22-4.975a8.716 8.716 0 0 1 3.4-3.325c1.45-.8 3.09-1.2 4.92-1.2 1.77 0 3.35.442 4.75 1.325a9.643 9.643 0 0 1 3.31 3.45 9.25 9.25 0 0 1 1.19 4.575v15.3h-6.54Zm-16.25 0v-24.15h6.54v24.15h-6.54ZM2512.84 371.12c-2.2 0-4.19-.55-5.95-1.65-1.77-1.1-3.15-2.6-4.15-4.5-1-1.9-1.5-4.033-1.5-6.4 0-2.4.5-4.55 1.5-6.45 1-1.9 2.38-3.4 4.15-4.5 1.76-1.1 3.75-1.65 5.95-1.65 1.73 0 3.28.35 4.65 1.05 1.36.7 2.45 1.675 3.27 2.925.82 1.25 1.26 2.658 1.33 4.225v8.7c-.07 1.6-.51 3.017-1.33 4.25-.82 1.233-1.91 2.208-3.27 2.925-1.37.717-2.92 1.075-4.65 1.075Zm1.19-6.05c1.84 0 3.32-.608 4.46-1.825 1.13-1.217 1.69-2.792 1.69-4.725 0-1.267-.25-2.392-.77-3.375-.52-.983-1.23-1.75-2.15-2.3-.92-.55-1.99-.825-3.23-.825-1.19 0-2.25.275-3.17.825-.92.55-1.63 1.317-2.15 2.3-.52.983-.78 2.108-.78 3.375 0 1.3.26 2.442.78 3.425.52.983 1.23 1.75 2.15 2.3.92.55 1.98.825 3.17.825Zm5.81 5.55v-6.5l1.05-5.9-1.05-5.8v-5.95h6.5v24.15h-6.5ZM2535.68 370.62v-34.2h6.56v34.2h-6.56Zm-5.65-18.4v-5.75h17.86v5.75h-17.86ZM2561.89 371.12c-2.14 0-4.03-.45-5.68-1.35-1.65-.9-2.94-2.15-3.87-3.75-.94-1.6-1.41-3.45-1.41-5.55v-14h6.6v13.85c0 1 .17 1.858.5 2.575.34.717.84 1.258 1.5 1.625.67.367 1.46.55 2.36.55 1.36 0 2.43-.417 3.2-1.25.76-.833 1.15-2 1.15-3.5v-13.85h6.54v14c0 2.133-.45 4-1.37 5.6a9.544 9.544 0 0 1-3.85 3.725c-1.65.883-3.54 1.325-5.67 1.325ZM2577.99 370.62v-24.15h6.54v24.15h-6.54Zm6.54-13.35-2.54-1.7c.29-2.967 1.16-5.308 2.6-7.025 1.43-1.717 3.5-2.575 6.19-2.575 1.17 0 2.22.192 3.15.575.94.383 1.79 1.008 2.56 1.875l-4.1 4.7c-.37-.4-.81-.7-1.33-.9-.52-.2-1.11-.3-1.78-.3-1.39 0-2.54.442-3.42 1.325-.88.883-1.33 2.225-1.33 4.025ZM2608.24 371.12c-2.21 0-4.19-.55-5.96-1.65-1.76-1.1-3.14-2.6-4.14-4.5-1-1.9-1.5-4.033-1.5-6.4 0-2.4.5-4.55 1.5-6.45 1-1.9 2.38-3.4 4.14-4.5 1.77-1.1 3.75-1.65 5.96-1.65 1.73 0 3.28.35 4.65 1.05 1.36.7 2.45 1.675 3.27 2.925.82 1.25 1.26 2.658 1.33 4.225v8.7c-.07 1.6-.51 3.017-1.33 4.25-.82 1.233-1.91 2.208-3.27 2.925-1.37.717-2.92 1.075-4.65 1.075Zm1.19-6.05c1.84 0 3.32-.608 4.46-1.825 1.13-1.217 1.7-2.792 1.7-4.725 0-1.267-.26-2.392-.78-3.375-.52-.983-1.23-1.75-2.15-2.3-.92-.55-1.99-.825-3.23-.825-1.19 0-2.25.275-3.17.825-.92.55-1.63 1.317-2.15 2.3-.52.983-.77 2.108-.77 3.375 0 1.3.25 2.442.77 3.425.52.983 1.23 1.75 2.15 2.3.92.55 1.98.825 3.17.825Zm5.81 5.55v-6.5l1.04-5.9-1.04-5.8v-5.95h6.5v24.15h-6.5ZM2627.53 334.47h6.55v36.15h-6.55z" style="fill:#f9f9ea;fill-rule:nonzero" transform="translate(-6405.552 -873.175) scale(2.74308)"/></g></svg>
